#!OML:ASF Y:\EmotionMaleHayes\Project 1\Capture day 1\Session 1\Male1.ASF
:FULLY-SPECIFIED
:DEGREES
1879
root 12.0162 17.5985 -2.32453 536.377 230.198 177.169
lowerback 2.38377 0.992054 1.00406
upperback 1.83454 1.32146 1.55458
thorax 0.529426 0.655282 1.00437
lowerneck -31.3629 1.08845 2.95079
upperneck 20.6926 0.0958143 0.190108
head 11.9277 0.318957 -0.384915
rclavicle -6.26047e-014 -4.17448e-015
rhumerus 45.2635 15.5942 -32.6286
rradius 40.5456
rwrist -5.61721
rhand -6.44509 -31.5677
rfingers 7.12502
rthumb 19.4044 -60.6195
lclavicle -6.26047e-014 -4.17448e-015
lhumerus 37.7934 -11.6998 26.977
lradius 40.5643
lwrist 8.20127
lhand -16.4568 -25.7794
lfingers 7.12502
lthumb 9.75949 3.97442
rfemur 17.9958 -5.80126 19.1967
rtibia 7.66142
rfoot -10.956 -4.09465
rtoes -6.41685
lfemur 7.23297 6.4028 -5.52641
ltibia 32.3939
lfoot -14.2911 9.47244
ltoes -6.47169
1880
root 11.9367 17.6121 -2.23845 536.482 230.345 177.007
lowerback 2.31853 1.06007 1.23791
upperback 1.74138 1.41637 1.64613
thorax 0.473015 0.704211 0.965604
lowerneck -31.3282 1.16201 3.30228
upperneck 20.6076 0.185785 -0.322225
head 11.8899 0.313779 -0.619893
rclavicle 9.82742e-015 2.98177e-015
rhumerus 45.3451 15.8299 -32.4899
rradius 40.604
rwrist -5.77009
rhand -6.50349 -31.7232
rfingers 7.12502
rthumb 19.3483 -60.7807
lclavicle 9.82742e-015 2.98177e-015
lhumerus 37.6655 -11.5716 26.9099
lradius 40.5231
lwrist 8.24101
lhand -16.251 -25.6474
lfingers 7.12502
lthumb 9.95804 4.0971
rfemur 18.5371 -5.45558 19.3784
rtibia 7.39019
rfoot -10.7143 -4.33659
rtoes -7.62069
lfemur 6.74732 6.30076 -5.52791
ltibia 31.1823
lfoot -14.5417 9.98318
ltoes -7.30296
1881
root 11.8601 17.6237 -2.14974 536.401 230.416 177.139
lowerback 2.28461 1.15228 1.44066
upperback 1.61313 1.54618 1.54865
thorax 0.367681 0.77139 0.748884
lowerneck -31.4393 1.10131 3.37944
upperneck 20.6413 0.0785444 -0.382894
head 11.9203 0.264204 -0.675507
rclavicle -2.2003e-014 -2.28602e-014
rhumerus 45.2612 15.9267 -32.5289
rradius 40.5631
rwrist -5.84167
rhand -6.54968 -31.7786
rfingers 7.12502
rthumb 19.3039 -60.8405
lclavicle -2.2003e-014 -2.28602e-014
lhumerus 37.7935 -11.4845 26.8427
lradius 40.3799
lwrist 8.12809
lhand -16.0576 -25.7485
lfingers 7.12502
lthumb 10.1446 3.98691
rfemur 19.0205 -5.24876 19.243
rtibia 7.13603
rfoot -10.5188 -4.49838
rtoes -8.49883
lfemur 6.14782 6.17356 -5.83153
ltibia 29.9854
lfoot -14.8187 10.7462
ltoes -7.4011
1882
root 11.7858 17.6352 -2.05771 536.247 230.532 177.394
lowerback 2.15692 1.2455 1.5754
upperback 1.52563 1.67272 1.43923
thorax 0.356327 0.836508 0.560948
lowerneck -31.7469 0.999957 3.18462
upperneck 20.7574 -0.0439941 -0.180892
head 12.0167 0.224147 -0.590129
rclavicle 3.25634e-014 -2.38542e-015
rhumerus 45.2563 15.9338 -32.7947
rradius 40.3898
rwrist -5.53471
rhand -6.3815 -31.7627
rfingers 7.12502
rthumb 19.4656 -60.8083
lclavicle 3.25634e-014 -2.38542e-015
lhumerus 37.9206 -11.5053 26.5919
lradius 40.3416
lwrist 8.21117
lhand -16.2021 -25.6821
lfingers 7.12502
lthumb 10.0052 4.06013
rfemur 19.3801 -5.19767 18.8902
rtibia 7.15823
rfoot -10.435 -4.41627
rtoes -9.34365
lfemur 5.56051 6.08196 -6.22503
ltibia 28.8255
lfoot -15.2989 11.3263
ltoes -7.88401
1883
root 11.7085 17.6452 -1.96405 536.151 230.661 177.619
lowerback 1.88386 1.30649 1.61266
upperback 1.46864 1.7495 1.42075
thorax 0.452592 0.875916 0.525939
lowerneck -32.0156 0.967227 3.13651
upperneck 20.809 -0.0415627 -0.307083
head 12.0829 0.203679 -0.630323
rclavicle 2.29224e-014 9.93923e-016
rhumerus 45.3624 15.9906 -33.0276
rradius 40.2816
rwrist -5.20453
rhand -6.35206 -31.8947
rfingers 7.12502
rthumb 19.4939 -60.9374
lclavicle 2.29224e-014 9.93923e-016
lhumerus 37.9191 -11.3945 26.6001
lradius 40.2384
lwrist 8.174
lhand -16.4812 -25.4126
lfingers 7.12502
lthumb 9.73588 4.34239
rfemur 19.775 -4.97029 18.6995
rtibia 7.09961
rfoot -10.3551 -4.4745
rtoes -10.1551
lfemur 4.99804 5.96645 -6.60244
ltibia 27.6332
lfoot -15.6916 11.658
ltoes -8.96598
1884
root 11.6334 17.6526 -1.87123 536.057 230.79 177.866
lowerback 1.69146 1.37463 1.67992
upperback 1.34517 1.84005 1.36565
thorax 0.437995 0.922026 0.433834
lowerneck -32.0086 0.975753 3.20152
upperneck 20.6868 0.000723745 -0.512341
head 12.0339 0.196679 -0.711058
rclavicle 4.5969e-014 -9.93923e-015
rhumerus 45.3612 16.0684 -33.2608
rradius 40.1759
rwrist -4.93183
rhand -6.29015 -31.9002
rfingers 7.12502
rthumb 19.5534 -60.937
lclavicle 4.5969e-014 -9.93923e-015
lhumerus 37.8872 -11.2125 26.8243
lradius 40.0556
lwrist 7.87168
lhand -16.4599 -25.4465
lfingers 7.12502
lthumb 9.75648 4.30749
rfemur 20.1389 -4.67951 18.5168
rtibia 6.98863
rfoot -10.2068 -4.63175
rtoes -11.0218
lfemur 4.40309 5.79036 -7.02858
ltibia 26.3965
lfoot -16.0482 11.9111
ltoes -8.2278
